<svg xmlns="http://www.w3.org/2000/svg" xmlns:xlink="http://www.w3.org/1999/xlink" width="512" zoomAndPan="magnify" viewBox="0 0 384 383.999986" height="512" preserveAspectRatio="xMidYMid meet" version="1.0"><defs><g/><clipPath id="d022b0dbcf"><path d="M 192 0 C 85.960938 0 0 85.960938 0 192 C 0 298.039062 85.960938 384 192 384 C 298.039062 384 384 298.039062 384 192 C 384 85.960938 298.039062 0 192 0 " clip-rule="nonzero"/></clipPath></defs><g clip-path="url(#d022b0dbcf)"><rect x="-38.4" width="460.8" fill="#16988d" y="-38.399999" height="460.799983" fill-opacity="1"/></g><g fill="#3a093e" fill-opacity="1"><g transform="translate(52.404857, 275.026103)"><g><path d="M 82.875 -90.65625 C 73.84375 -90.507812 65.769531 -88.769531 58.65625 -85.4375 C 51.550781 -82.101562 46.441406 -77.101562 43.328125 -70.4375 L 43.328125 0 L 13.546875 0 L 13.546875 -116.4375 L 40.890625 -116.4375 L 40.890625 -91.546875 C 42.960938 -95.546875 45.40625 -99.140625 48.21875 -102.328125 C 51.03125 -105.515625 54.066406 -108.289062 57.328125 -110.65625 C 60.585938 -113.03125 63.882812 -114.84375 67.21875 -116.09375 C 70.550781 -117.351562 73.769531 -117.984375 76.875 -117.984375 C 78.507812 -117.984375 79.734375 -117.984375 80.546875 -117.984375 C 81.359375 -117.984375 82.132812 -117.910156 82.875 -117.765625 Z M 82.875 -90.65625 "/></g></g></g><g fill="#3a093e" fill-opacity="1"><g transform="translate(138.396072, 275.026103)"><g><path d="M 13.328125 -162.203125 L 43.109375 -162.203125 L 43.109375 -37.328125 C 43.109375 -33.035156 44.144531 -29.703125 46.21875 -27.328125 C 48.289062 -24.960938 51.253906 -23.78125 55.109375 -23.78125 C 56.878906 -23.78125 58.835938 -24.070312 60.984375 -24.65625 C 63.140625 -25.25 65.179688 -25.992188 67.109375 -26.890625 L 71.109375 -4.21875 C 67.109375 -2.289062 62.441406 -0.8125 57.109375 0.21875 C 51.773438 1.257812 46.957031 1.78125 42.65625 1.78125 C 33.332031 1.78125 26.113281 -0.695312 21 -5.65625 C 15.882812 -10.625 13.328125 -17.703125 13.328125 -26.890625 Z M 13.328125 -162.203125 "/></g></g></g><g fill="#3a093e" fill-opacity="1"><g transform="translate(208.833288, 275.026103)"><g><path d="M 57.546875 2.21875 C 47.773438 2.21875 38.222656 0.664062 28.890625 -2.4375 C 19.554688 -5.550781 11.554688 -10 4.890625 -15.78125 L 16 -34.4375 C 23.113281 -29.40625 30.039062 -25.59375 36.78125 -23 C 43.519531 -20.40625 50.222656 -19.109375 56.890625 -19.109375 C 62.804688 -19.109375 67.46875 -20.21875 70.875 -22.4375 C 74.289062 -24.664062 76 -27.851562 76 -32 C 76 -36.144531 74 -39.179688 70 -41.109375 C 66 -43.035156 59.476562 -45.257812 50.4375 -47.78125 C 42.882812 -49.851562 36.441406 -51.847656 31.109375 -53.765625 C 25.773438 -55.691406 21.476562 -57.878906 18.21875 -60.328125 C 14.957031 -62.773438 12.585938 -65.585938 11.109375 -68.765625 C 9.628906 -71.953125 8.890625 -75.769531 8.890625 -80.21875 C 8.890625 -86.144531 10.035156 -91.476562 12.328125 -96.21875 C 14.628906 -100.957031 17.851562 -104.992188 22 -108.328125 C 26.144531 -111.660156 30.992188 -114.210938 36.546875 -115.984375 C 42.109375 -117.765625 48.144531 -118.65625 54.65625 -118.65625 C 63.394531 -118.65625 71.578125 -117.394531 79.203125 -114.875 C 86.835938 -112.351562 93.84375 -108.28125 100.21875 -102.65625 L 88.21875 -84.65625 C 82.289062 -89.101562 76.546875 -92.363281 70.984375 -94.4375 C 65.429688 -96.507812 59.914062 -97.546875 54.4375 -97.546875 C 49.40625 -97.546875 45.179688 -96.507812 41.765625 -94.4375 C 38.359375 -92.363281 36.65625 -89.03125 36.65625 -84.4375 C 36.65625 -82.363281 37.0625 -80.660156 37.875 -79.328125 C 38.695312 -77.992188 39.992188 -76.804688 41.765625 -75.765625 C 43.546875 -74.734375 45.878906 -73.734375 48.765625 -72.765625 C 51.660156 -71.804688 55.253906 -70.804688 59.546875 -69.765625 C 67.546875 -67.691406 74.394531 -65.617188 80.09375 -63.546875 C 85.800781 -61.472656 90.46875 -59.101562 94.09375 -56.4375 C 97.726562 -53.769531 100.394531 -50.695312 102.09375 -47.21875 C 103.800781 -43.738281 104.65625 -39.550781 104.65625 -34.65625 C 104.65625 -23.25 100.429688 -14.25 91.984375 -7.65625 C 83.546875 -1.070312 72.066406 2.21875 57.546875 2.21875 Z M 57.546875 2.21875 "/></g></g></g><g fill="#fcfae9" fill-opacity="1"><g transform="translate(64.720944, 258.973417)"><g><path d="M 82.875 -90.65625 C 73.84375 -90.507812 65.769531 -88.769531 58.65625 -85.4375 C 51.550781 -82.101562 46.441406 -77.101562 43.328125 -70.4375 L 43.328125 0 L 13.546875 0 L 13.546875 -116.4375 L 40.890625 -116.4375 L 40.890625 -91.546875 C 42.960938 -95.546875 45.40625 -99.140625 48.21875 -102.328125 C 51.03125 -105.515625 54.066406 -108.289062 57.328125 -110.65625 C 60.585938 -113.03125 63.882812 -114.84375 67.21875 -116.09375 C 70.550781 -117.351562 73.769531 -117.984375 76.875 -117.984375 C 78.507812 -117.984375 79.734375 -117.984375 80.546875 -117.984375 C 81.359375 -117.984375 82.132812 -117.910156 82.875 -117.765625 Z M 82.875 -90.65625 "/></g></g></g><g fill="#fcfae9" fill-opacity="1"><g transform="translate(150.712158, 258.973417)"><g><path d="M 13.328125 -162.203125 L 43.109375 -162.203125 L 43.109375 -37.328125 C 43.109375 -33.035156 44.144531 -29.703125 46.21875 -27.328125 C 48.289062 -24.960938 51.253906 -23.78125 55.109375 -23.78125 C 56.878906 -23.78125 58.835938 -24.070312 60.984375 -24.65625 C 63.140625 -25.25 65.179688 -25.992188 67.109375 -26.890625 L 71.109375 -4.21875 C 67.109375 -2.289062 62.441406 -0.8125 57.109375 0.21875 C 51.773438 1.257812 46.957031 1.78125 42.65625 1.78125 C 33.332031 1.78125 26.113281 -0.695312 21 -5.65625 C 15.882812 -10.625 13.328125 -17.703125 13.328125 -26.890625 Z M 13.328125 -162.203125 "/></g></g></g><g fill="#fcfae9" fill-opacity="1"><g transform="translate(221.149374, 258.973417)"><g><path d="M 57.546875 2.21875 C 47.773438 2.21875 38.222656 0.664062 28.890625 -2.4375 C 19.554688 -5.550781 11.554688 -10 4.890625 -15.78125 L 16 -34.4375 C 23.113281 -29.40625 30.039062 -25.59375 36.78125 -23 C 43.519531 -20.40625 50.222656 -19.109375 56.890625 -19.109375 C 62.804688 -19.109375 67.46875 -20.21875 70.875 -22.4375 C 74.289062 -24.664062 76 -27.851562 76 -32 C 76 -36.144531 74 -39.179688 70 -41.109375 C 66 -43.035156 59.476562 -45.257812 50.4375 -47.78125 C 42.882812 -49.851562 36.441406 -51.847656 31.109375 -53.765625 C 25.773438 -55.691406 21.476562 -57.878906 18.21875 -60.328125 C 14.957031 -62.773438 12.585938 -65.585938 11.109375 -68.765625 C 9.628906 -71.953125 8.890625 -75.769531 8.890625 -80.21875 C 8.890625 -86.144531 10.035156 -91.476562 12.328125 -96.21875 C 14.628906 -100.957031 17.851562 -104.992188 22 -108.328125 C 26.144531 -111.660156 30.992188 -114.210938 36.546875 -115.984375 C 42.109375 -117.765625 48.144531 -118.65625 54.65625 -118.65625 C 63.394531 -118.65625 71.578125 -117.394531 79.203125 -114.875 C 86.835938 -112.351562 93.84375 -108.28125 100.21875 -102.65625 L 88.21875 -84.65625 C 82.289062 -89.101562 76.546875 -92.363281 70.984375 -94.4375 C 65.429688 -96.507812 59.914062 -97.546875 54.4375 -97.546875 C 49.40625 -97.546875 45.179688 -96.507812 41.765625 -94.4375 C 38.359375 -92.363281 36.65625 -89.03125 36.65625 -84.4375 C 36.65625 -82.363281 37.0625 -80.660156 37.875 -79.328125 C 38.695312 -77.992188 39.992188 -76.804688 41.765625 -75.765625 C 43.546875 -74.734375 45.878906 -73.734375 48.765625 -72.765625 C 51.660156 -71.804688 55.253906 -70.804688 59.546875 -69.765625 C 67.546875 -67.691406 74.394531 -65.617188 80.09375 -63.546875 C 85.800781 -61.472656 90.46875 -59.101562 94.09375 -56.4375 C 97.726562 -53.769531 100.394531 -50.695312 102.09375 -47.21875 C 103.800781 -43.738281 104.65625 -39.550781 104.65625 -34.65625 C 104.65625 -23.25 100.429688 -14.25 91.984375 -7.65625 C 83.546875 -1.070312 72.066406 2.21875 57.546875 2.21875 Z M 57.546875 2.21875 "/></g></g></g></svg>